<svg width="18" height="16" viewBox="0 0 18 16" fill="none" xmlns="http://www.w3.org/2000/svg">
<path d="M13.1665 0.916672H4.83317C2.33317 0.916672 0.666504 2.16667 0.666504 5.08334V10.9167C0.666504 13.8333 2.33317 15.0833 4.83317 15.0833H13.1665C15.6665 15.0833 17.3332 13.8333 17.3332 10.9167V5.08334C17.3332 2.16667 15.6665 0.916672 13.1665 0.916672ZM13.5582 5.99167L10.9498 8.07501C10.3998 8.51667 9.69984 8.73334 8.99984 8.73334C8.29984 8.73334 7.5915 8.51667 7.04984 8.07501L4.4415 5.99167C4.17484 5.77501 4.13317 5.37501 4.3415 5.10834C4.55817 4.84167 4.94984 4.79167 5.2165 5.00834L7.82484 7.09167C8.45817 7.60001 9.53317 7.60001 10.1665 7.09167L12.7748 5.00834C13.0415 4.79167 13.4415 4.83334 13.6498 5.10834C13.8665 5.37501 13.8248 5.77501 13.5582 5.99167Z" fill="#FF7800"/>
</svg>
