<svg width="16" height="18" viewBox="0 0 16 18" fill="none" xmlns="http://www.w3.org/2000/svg">
<path d="M13.4502 2.47501L8.86683 0.75834C8.39183 0.58334 7.61683 0.58334 7.14183 0.75834L2.5585 2.47501C1.67516 2.80834 0.958496 3.84167 0.958496 4.78334V11.5333C0.958496 12.2083 1.40016 13.1 1.94183 13.5L6.52516 16.925C7.3335 17.5333 8.6585 17.5333 9.46683 16.925L14.0502 13.5C14.5918 13.0917 15.0335 12.2083 15.0335 11.5333V4.78334C15.0418 3.84167 14.3252 2.80834 13.4502 2.47501ZM8.62516 9.72501V11.9167C8.62516 12.2583 8.34183 12.5417 8.00016 12.5417C7.6585 12.5417 7.37516 12.2583 7.37516 11.9167V9.72501C6.5335 9.45834 5.91683 8.67501 5.91683 7.75001C5.91683 6.60001 6.85016 5.66667 8.00016 5.66667C9.15016 5.66667 10.0835 6.60001 10.0835 7.75001C10.0835 8.68334 9.46683 9.45834 8.62516 9.72501Z" fill="#FF7800"/>
</svg>
